<svg width="535" height="428" viewBox="0 0 535 428" fill="none" xmlns="http://www.w3.org/2000/svg">
<path d="M419.795 209.898C419.795 325.821 325.821 419.795 209.898 419.795C93.9744 419.795 0 325.821 0 209.898C0 93.9744 93.9744 0 209.898 0C325.821 0 419.795 93.9744 419.795 209.898Z" fill="#FF9A76" fill-opacity="0.2"/>
<g clip-path="url(#clip0)">
<path d="M508.594 156.736C508.594 173.309 504.668 186.951 497.858 198.638C495.611 202.487 493.059 206.151 490.229 209.594C465.194 240.21 418.651 256.967 376.586 284.11C252.414 364.229 238.964 235.846 244.572 156.736C246.834 124.815 259.267 95.5748 279.018 73.1866C283.166 68.478 287.647 64.0732 292.426 60.0062C314.849 40.9119 343.818 29.3573 376.586 29.3573C432.804 29.3573 480.812 63.2625 499.847 111.041C505.634 125.58 508.603 141.087 508.594 156.736Z" fill="#FF9A76"/>
<path d="M404.711 58.0648L279.018 73.1866C283.166 68.478 287.647 64.0732 292.426 60.0062L404.711 58.0648Z" fill="#D0CDE1"/>
<path d="M497.859 198.638C495.611 202.487 493.06 206.151 490.229 209.594L382.561 196.645L497.859 198.638Z" fill="#D0CDE1"/>
<path d="M504.24 124.179L321.767 100.513L499.847 111.041C501.558 115.334 503.024 119.72 504.24 124.179Z" fill="#D0CDE1"/>
<path d="M256.95 63.287C256.95 63.6122 256.941 63.9326 256.912 64.2483C256.77 66.2053 256.192 68.1057 255.222 69.8113C254.252 71.5168 252.914 72.9845 251.305 74.1075C249.695 75.2304 247.856 75.9804 245.92 76.3027C243.985 76.625 242.002 76.5115 240.115 75.9705C238.229 75.4295 236.487 74.4747 235.017 73.1755C233.546 71.8763 232.384 70.2656 231.615 68.4605C230.846 66.6554 230.489 64.7015 230.57 62.7411C230.652 60.7806 231.169 58.8631 232.086 57.128C232.369 56.5843 232.694 56.0629 233.057 55.5683C234.635 53.3797 236.846 51.7278 239.392 50.8352C241.939 49.9426 244.697 49.8524 247.297 50.5766C249.896 51.3008 252.211 52.8047 253.928 54.8854C255.646 56.9661 256.684 59.5235 256.903 62.2126C256.936 62.566 256.95 62.9242 256.95 63.287Z" fill="#FF9A76"/>
<path d="M256.95 63.287C256.95 63.6122 256.941 63.9326 256.912 64.2483L237.157 61.8733L256.903 62.2126C256.936 62.566 256.95 62.9242 256.95 63.287Z" fill="#D0CDE1"/>
<path d="M252.237 69.9361L233.961 72.1367C233.443 71.5585 232.976 70.9356 232.566 70.2754L252.237 69.9361Z" fill="#D0CDE1"/>
<path d="M247.053 55.3279L232.086 57.128C232.369 56.5843 232.694 56.0629 233.057 55.5682L247.053 55.3279Z" fill="#D0CDE1"/>
<path d="M437.793 300.847C437.641 301.134 437.482 301.413 437.309 301.679C436.266 303.34 434.865 304.748 433.208 305.8C431.552 306.852 429.682 307.521 427.734 307.759C425.786 307.996 423.81 307.797 421.949 307.174C420.088 306.551 418.389 305.522 416.977 304.16C415.564 302.798 414.473 301.138 413.783 299.301C413.094 297.464 412.822 295.496 412.989 293.541C413.156 291.586 413.756 289.693 414.747 288C415.739 286.306 417.095 284.855 418.718 283.752C419.223 283.405 419.754 283.096 420.306 282.829C422.726 281.636 425.454 281.213 428.122 281.618C430.79 282.023 433.269 283.237 435.225 285.095C437.182 286.953 438.521 289.366 439.063 292.009C439.605 294.652 439.323 297.398 438.256 299.876C438.119 300.204 437.964 300.527 437.793 300.847Z" fill="#FF9A76"/>
<path d="M437.793 300.847C437.641 301.134 437.482 301.413 437.309 301.678L420.972 290.32L438.256 299.876C438.119 300.204 437.964 300.527 437.793 300.847Z" fill="#D0CDE1"/>
<path d="M430.513 304.511L413.338 297.889C413.151 297.135 413.031 296.366 412.979 295.591L430.513 304.511Z" fill="#D0CDE1"/>
<path d="M432.783 289.178L418.718 283.752C419.223 283.405 419.754 283.096 420.306 282.829L432.783 289.178Z" fill="#D0CDE1"/>
<path d="M531.253 73.3951C531.48 73.6279 531.697 73.8639 531.897 74.1097C533.161 75.6103 534.075 77.374 534.571 79.2722C535.068 81.1705 535.134 83.1557 534.767 85.083C534.399 87.0103 533.606 88.8314 532.445 90.4134C531.284 91.9955 529.785 93.2988 528.057 94.2284C526.329 95.1579 524.415 95.6904 522.455 95.7869C520.495 95.8834 518.539 95.5416 516.728 94.7864C514.916 94.0312 513.297 92.8815 511.986 91.4211C510.675 89.9608 509.707 88.2265 509.152 86.3447C508.975 85.7574 508.843 85.1575 508.758 84.5503C508.359 81.8818 508.789 79.1553 509.988 76.7387C511.188 74.322 513.1 72.3313 515.467 71.0351C517.833 69.739 520.54 69.1997 523.223 69.4901C525.905 69.7804 528.434 70.8864 530.469 72.6589C530.739 72.8889 530.999 73.1354 531.253 73.3951Z" fill="#FF9A76"/>
<path d="M531.253 73.3952C531.48 73.6279 531.697 73.8639 531.897 74.1097L516.095 86.2017L530.469 72.6589C530.739 72.8889 531 73.1354 531.253 73.3952Z" fill="#D0CDE1"/>
<path d="M532.522 81.4454L520.975 95.78C520.199 95.7282 519.43 95.6082 518.676 95.4213L532.522 81.4454Z" fill="#D0CDE1"/>
<path d="M518.61 74.6065L509.152 86.3447C508.975 85.7573 508.843 85.1575 508.758 84.5502L518.61 74.6065Z" fill="#D0CDE1"/>
<path d="M283.694 316.551C283.694 316.551 312.651 317.757 312.651 324.996C312.651 332.235 280.074 324.996 280.074 324.996L283.694 316.551Z" fill="#A0616A"/>
<path d="M245.021 416.649L233.73 418.342L219.051 419.471H200.42L185.177 418.342L183.548 394.971L174.45 416.649L168.805 415.519L160.336 413.826L149.045 410.438L136.625 406.486L125.898 401.97C127.104 356.124 138.905 322.583 140.112 316.551C141.318 310.519 144.202 285.593 144.202 285.593C149.475 274.409 177.105 273.36 198.763 274.373C207.74 274.783 215.703 275.555 220.614 276.11C223.86 276.472 225.778 276.738 225.778 276.738C234.429 285.654 240.004 297.803 243.43 311.375C255.786 360.273 245.021 416.649 245.021 416.649Z" fill="#2F2E41"/>
<path d="M179.928 147.646C196.588 147.646 210.093 134.142 210.093 117.485C210.093 100.827 196.588 87.3231 179.928 87.3231C163.269 87.3231 149.764 100.827 149.764 117.485C149.764 134.142 163.269 147.646 179.928 147.646Z" fill="#A0616A"/>
<path d="M159.417 124.723C159.417 124.723 150.971 162.124 137.698 172.982C124.426 183.84 189.581 172.982 189.581 172.982C189.581 172.982 175.102 148.853 185.961 137.995C196.82 127.136 159.417 124.723 159.417 124.723Z" fill="#A0616A"/>
<path d="M220.952 279.151L200.935 281.37L144.938 287.596C144.938 287.596 144.673 286.884 144.202 285.593C140.136 274.506 120.553 220.553 118.393 204.35C115.98 186.253 141.318 164.537 141.318 164.537C141.318 164.537 165.45 159.711 172.689 159.711C179.928 159.711 208.886 170.569 208.886 170.569L219.685 267.701L220.614 276.11L220.952 279.151Z" fill="#D0CDE1"/>
<path opacity="0.15" d="M243.43 311.375L202.853 287.596C202.853 287.596 202.141 285.279 200.935 281.371C200.332 279.416 199.596 277.051 198.763 274.373C194.082 259.341 186.227 234.536 179.929 216.415C170.276 188.666 217.332 265.88 217.332 265.88L219.685 267.701L220.614 276.11C223.86 276.472 225.778 276.738 225.778 276.738C234.429 285.654 240.004 297.803 243.43 311.375Z" fill="black"/>
<path d="M189.581 172.982C189.581 172.982 177.515 188.666 187.168 216.415C196.82 244.163 210.093 287.596 210.093 287.596L280.074 328.616L289.726 316.551L224.572 265.88C224.572 265.88 222.158 174.188 210.093 170.569C198.027 166.95 189.581 172.982 189.581 172.982Z" fill="#D0CDE1"/>
<path d="M129.856 278.547C129.856 278.547 146.748 313.535 153.987 309.916C161.227 306.296 135.889 270.102 135.889 270.102L129.856 278.547Z" fill="#A0616A"/>
<path d="M128.046 182.634L64.0977 235.718C64.0977 235.718 39.9663 252.608 84.6094 264.673C129.253 276.738 132.872 283.977 132.872 283.977C132.872 283.977 137.698 268.293 143.731 270.705L91.8488 245.37L134.079 220.034L128.046 182.634Z" fill="#D0CDE1"/>
<path d="M102.344 142.24C105.701 140.578 113.112 137.224 119.425 133.183C118.982 120.037 120.601 108.103 125.341 101.777C128.001 95.7376 133.587 89.691 137.962 84.9291C148.706 73.2353 172.464 66.708 176.677 72.5506C208.547 73.1797 211.903 98.1588 211.903 98.1588C211.737 108.607 200.877 108.937 191.364 108.557C192.216 115.69 189.945 123.101 183.371 126.388C170.799 132.673 167.028 140.844 173.314 146.501C179.6 152.158 190.914 167.242 175.828 171.013C160.742 174.785 158.856 182.327 163.256 185.47C167.657 188.612 153.199 179.813 153.199 179.813C153.199 179.813 150.685 194.898 137.484 191.126C136.301 190.788 135.119 189.922 133.957 188.627C130.392 192.544 127.211 194.86 124.814 194.873C111.086 194.946 112.732 179.742 112.732 179.742C112.732 179.742 96.4372 184.318 101.522 182.478C106.606 180.638 106.824 172.866 93.3136 165.167C79.8031 157.469 94.7661 145.993 102.344 142.24Z" fill="#2F2E41"/>
<path d="M270.782 181.65L270.563 181.622L271.097 183.651C271.602 186.482 272.335 189.268 273.289 191.981L288.947 251.501C289.447 253.401 290.491 255.113 291.95 256.428C293.409 257.743 295.221 258.604 297.162 258.904L329.095 263.844C331.16 264.163 333.273 263.834 335.143 262.901C337.012 261.968 338.546 260.478 339.532 258.636L369.88 201.958C370.828 200.388 371.694 198.769 372.475 197.11L373.506 195.185L373.345 195.164C376.562 187.555 377.978 179.305 377.483 171.059C376.987 162.813 374.594 154.792 370.49 147.622C366.385 140.453 360.68 134.328 353.819 129.725C346.958 125.122 339.127 122.166 330.936 121.087C322.744 120.007 314.414 120.834 306.595 123.503C298.776 126.171 291.679 130.609 285.857 136.471C280.035 142.333 275.646 149.46 273.031 157.296C270.416 165.133 269.646 173.468 270.782 181.65H270.782Z" fill="#3F3D56"/>
<path d="M331.055 267.733C330.493 267.733 329.931 267.689 329.375 267.603L295.996 262.44C293.876 262.112 291.898 261.172 290.304 259.736C288.711 258.3 287.571 256.43 287.026 254.355L270.658 192.141C269.658 189.292 268.889 186.368 268.359 183.396L267.945 180.675C266.832 171.979 267.755 163.144 270.641 154.867C273.528 146.59 278.299 139.096 284.578 132.979C290.858 126.861 298.473 122.287 306.824 119.617C315.174 116.947 324.031 116.255 332.695 117.594L332.55 118.525C323.981 117.205 315.221 117.905 306.97 120.571C298.719 123.236 291.205 127.793 285.028 133.877C278.851 139.961 274.181 147.405 271.392 155.614C268.602 163.823 267.77 172.57 268.961 181.158L269.279 183.194C269.805 186.141 270.567 189.04 271.559 191.865L287.938 254.116C288.436 256.013 289.478 257.723 290.935 259.036C292.392 260.35 294.201 261.209 296.14 261.508L329.519 266.672C331.581 266.989 333.69 266.659 335.557 265.727C337.423 264.796 338.955 263.309 339.941 261.471L340.772 261.916C339.829 263.673 338.428 265.141 336.717 266.165C335.006 267.19 333.049 267.731 331.055 267.733Z" fill="#D0CDE1"/>
<path d="M339.522 195.179L319.212 250.629L320.357 251.048L340.667 195.598L339.522 195.179Z" fill="#D0CDE1"/>
<path d="M306.361 190.049L305.143 190.102L307.735 249.097L308.953 249.043L306.361 190.049Z" fill="#D0CDE1"/>
<path d="M328.233 295.938L285.462 289.322C285.144 289.271 284.859 289.096 284.669 288.836C284.48 288.575 284.401 288.25 284.45 287.932C284.5 287.614 284.673 287.328 284.932 287.137C285.192 286.946 285.516 286.865 285.835 286.913L328.606 293.529C328.765 293.552 328.918 293.607 329.056 293.69C329.193 293.773 329.313 293.882 329.408 294.012C329.504 294.141 329.573 294.288 329.611 294.444C329.649 294.6 329.656 294.762 329.632 294.921C329.607 295.08 329.551 295.232 329.468 295.369C329.384 295.507 329.274 295.626 329.144 295.72C329.014 295.815 328.867 295.883 328.71 295.92C328.554 295.958 328.392 295.964 328.233 295.938Z" fill="#3F3D56"/>
<path d="M329.33 286.856L286.559 280.24C286.4 280.216 286.247 280.161 286.109 280.079C285.972 279.996 285.852 279.886 285.756 279.757C285.661 279.628 285.592 279.481 285.554 279.325C285.516 279.169 285.509 279.007 285.533 278.848C285.558 278.689 285.613 278.537 285.697 278.399C285.781 278.262 285.891 278.143 286.021 278.048C286.151 277.954 286.298 277.886 286.454 277.848C286.611 277.811 286.773 277.805 286.931 277.83L329.703 284.447C329.862 284.47 330.015 284.525 330.152 284.608C330.29 284.691 330.41 284.8 330.505 284.93C330.601 285.059 330.669 285.206 330.708 285.362C330.746 285.518 330.753 285.68 330.728 285.839C330.704 285.998 330.648 286.15 330.564 286.287C330.481 286.424 330.371 286.544 330.241 286.638C330.111 286.733 329.964 286.801 329.807 286.838C329.651 286.876 329.489 286.882 329.33 286.856Z" fill="#3F3D56"/>
<path d="M330.427 277.774L287.655 271.158C287.337 271.107 287.052 270.932 286.863 270.671C286.673 270.411 286.595 270.086 286.644 269.768C286.693 269.45 286.866 269.164 287.126 268.973C287.385 268.782 287.709 268.701 288.028 268.748L330.8 275.365C331.118 275.416 331.403 275.591 331.592 275.851C331.782 276.112 331.86 276.436 331.811 276.755C331.762 277.073 331.589 277.359 331.329 277.55C331.07 277.741 330.746 277.822 330.427 277.774H330.427Z" fill="#3F3D56"/>
<path d="M305.518 301.223C314.002 302.536 321.611 298.871 322.514 293.039L291.79 288.287C290.888 294.119 297.034 299.911 305.518 301.223Z" fill="#3F3D56"/>
<path d="M320.893 183.497C319.068 183.215 317.558 181.773 316.73 180.806C316.459 180.489 316.195 180.16 315.93 179.831C314.966 178.631 314.055 177.498 312.788 176.907C309.99 175.601 306.693 177.425 303.839 179.381L303.149 178.375C306.288 176.224 309.947 174.237 313.303 175.802C314.828 176.513 315.871 177.811 316.88 179.067C317.137 179.387 317.393 179.706 317.656 180.013C318.517 181.018 320.233 182.647 322.073 182.271C322.848 182.045 323.569 181.664 324.191 181.15C324.666 180.796 325.167 180.479 325.691 180.204C326.753 179.694 327.941 179.511 329.108 179.675C330.274 179.84 331.365 180.346 332.245 181.13C332.558 181.427 332.855 181.741 333.134 182.07C333.682 182.695 334.2 183.285 334.874 183.5C335.871 183.818 336.924 183.249 338.04 182.647C339.19 182.026 340.38 181.384 341.73 181.542C341.773 181.548 341.818 181.554 341.861 181.56C344.263 181.932 345.37 184.587 345.996 186.569L344.833 186.936C343.982 184.242 342.946 182.903 341.587 182.753C340.62 182.64 339.648 183.164 338.619 183.72C337.328 184.416 335.993 185.137 334.504 184.661C333.507 184.344 332.851 183.597 332.217 182.874C331.968 182.579 331.702 182.297 331.422 182.029C330.721 181.416 329.858 181.02 328.936 180.89C328.014 180.76 327.075 180.901 326.232 181.296C325.765 181.544 325.318 181.828 324.895 182.145C324.139 182.762 323.26 183.212 322.317 183.465C321.848 183.561 321.366 183.572 320.893 183.497Z" fill="#D0CDE1"/>
</g>
<defs>
<clipPath id="clip0">
<rect width="477.414" height="398.188" fill="white" transform="translate(57.5856 29.3573)"/>
</clipPath>
</defs>
</svg>
