<svg width="284" height="70" viewBox="0 0 284 70" fill="none" xmlns="http://www.w3.org/2000/svg">
<rect x="1" y="1" width="281.111" height="68" rx="4" fill="white" stroke="#222222" stroke-width="2"/>
<path d="M0 5C0 2.23858 2.23858 0 5 0H76V70H5C2.23858 70 0 67.7614 0 65V5Z" fill="#222222"/>
<path d="M26.5061 36.5772V27.071H22.9413C21.9958 27.071 21.0891 27.4466 20.4206 28.1151C19.752 28.7836 19.3765 29.6904 19.3765 30.6358V52.0247C19.3782 52.2454 19.4414 52.4612 19.559 52.648C19.6765 52.8348 19.8437 52.9851 20.0419 53.0822C20.2328 53.1691 20.4433 53.2038 20.652 53.1829C20.8608 53.1621 21.0602 53.0863 21.2302 52.9634L27.3498 48.4599H43.3201C43.7705 48.4732 44.2188 48.3939 44.6373 48.2269C45.0558 48.0599 45.4355 47.8088 45.753 47.4891C46.0705 47.1694 46.3189 46.7879 46.483 46.3683C46.647 45.9486 46.7232 45.4998 46.7067 45.0495V43.7068H33.6357C31.7448 43.7068 29.9314 42.9556 28.5943 41.6186C27.2573 40.2815 26.5061 38.4681 26.5061 36.5772Z" fill="#FF9A76"/>
<path d="M53.8365 18.7531H33.6359C32.6904 18.7531 31.7837 19.1287 31.1152 19.7972C30.4466 20.4658 30.071 21.3725 30.071 22.3179V36.5772C30.071 37.5226 30.4466 38.4294 31.1152 39.0979C31.7837 39.7664 32.6904 40.142 33.6359 40.142H49.7369L55.4169 44.5505C55.5857 44.6753 55.7846 44.7532 55.9934 44.7762C56.2021 44.7991 56.4132 44.7663 56.6052 44.6812C56.8074 44.5849 56.9782 44.4334 57.0981 44.2442C57.2179 44.055 57.2818 43.8357 57.2825 43.6118V22.3179C57.283 21.3927 56.9238 20.5035 56.2807 19.8383C55.6377 19.1731 54.7612 18.784 53.8365 18.7531Z" fill="#FF9A76"/>
<path d="M99.9 36.1L99.42 37.9H103.59L103.14 36.1C102.86 35.12 102.59 34.08 102.33 32.98C102.07 31.88 101.81 30.82 101.55 29.8H101.43C101.19 30.84 100.94 31.91 100.68 33.01C100.44 34.09 100.18 35.12 99.9 36.1ZM92.82 46L98.94 26.44H104.25L110.37 46H105.69L104.49 41.35H98.52L97.32 46H92.82ZM112.147 46V31.12H115.747L116.047 33.04H116.167C116.787 32.42 117.447 31.89 118.147 31.45C118.847 30.99 119.687 30.76 120.667 30.76C121.727 30.76 122.577 30.98 123.217 31.42C123.877 31.84 124.397 32.45 124.777 33.25C125.437 32.57 126.127 31.99 126.847 31.51C127.587 31.01 128.457 30.76 129.457 30.76C131.057 30.76 132.227 31.3 132.967 32.38C133.727 33.44 134.107 34.9 134.107 36.76V46H129.697V37.33C129.697 36.25 129.547 35.51 129.247 35.11C128.967 34.71 128.507 34.51 127.867 34.51C127.127 34.51 126.277 34.99 125.317 35.95V46H120.907V37.33C120.907 36.25 120.757 35.51 120.457 35.11C120.177 34.71 119.717 34.51 119.077 34.51C118.317 34.51 117.477 34.99 116.557 35.95V46H112.147ZM145.67 46.36C145.01 46.36 144.34 46.2 143.66 45.88C143 45.54 142.38 45.05 141.8 44.41H141.68L141.32 46H137.87V24.97H142.28V30.13L142.16 32.41C142.74 31.89 143.36 31.49 144.02 31.21C144.7 30.91 145.39 30.76 146.09 30.76C146.99 30.76 147.8 30.94 148.52 31.3C149.24 31.66 149.85 32.17 150.35 32.83C150.87 33.47 151.26 34.26 151.52 35.2C151.8 36.12 151.94 37.15 151.94 38.29C151.94 39.57 151.76 40.71 151.4 41.71C151.06 42.71 150.59 43.56 149.99 44.26C149.41 44.94 148.74 45.46 147.98 45.82C147.24 46.18 146.47 46.36 145.67 46.36ZM144.65 42.76C145.41 42.76 146.06 42.42 146.6 41.74C147.14 41.04 147.41 39.92 147.41 38.38C147.41 35.7 146.55 34.36 144.83 34.36C143.95 34.36 143.1 34.81 142.28 35.71V41.8C142.68 42.16 143.08 42.41 143.48 42.55C143.88 42.69 144.27 42.76 144.65 42.76ZM155.067 46V31.12H159.477V46H155.067ZM157.257 28.93C156.517 28.93 155.907 28.72 155.427 28.3C154.947 27.86 154.707 27.3 154.707 26.62C154.707 25.94 154.947 25.39 155.427 24.97C155.907 24.55 156.517 24.34 157.257 24.34C158.017 24.34 158.627 24.55 159.087 24.97C159.567 25.39 159.807 25.94 159.807 26.62C159.807 27.3 159.567 27.86 159.087 28.3C158.627 28.72 158.017 28.93 157.257 28.93ZM167.738 46.36C166.758 46.36 165.748 46.17 164.708 45.79C163.688 45.41 162.798 44.91 162.038 44.29L164.018 41.53C164.698 42.05 165.348 42.44 165.968 42.7C166.588 42.96 167.218 43.09 167.858 43.09C168.518 43.09 168.998 42.98 169.298 42.76C169.598 42.54 169.748 42.23 169.748 41.83C169.748 41.59 169.658 41.38 169.478 41.2C169.318 41 169.088 40.82 168.788 40.66C168.508 40.5 168.188 40.36 167.828 40.24C167.468 40.1 167.098 39.95 166.718 39.79C166.258 39.61 165.798 39.4 165.338 39.16C164.878 38.92 164.458 38.63 164.078 38.29C163.698 37.93 163.388 37.52 163.148 37.06C162.908 36.58 162.788 36.03 162.788 35.41C162.788 34.73 162.918 34.1 163.178 33.52C163.458 32.94 163.848 32.45 164.348 32.05C164.848 31.65 165.448 31.34 166.148 31.12C166.848 30.88 167.628 30.76 168.488 30.76C169.628 30.76 170.628 30.96 171.488 31.36C172.348 31.74 173.098 32.17 173.738 32.65L171.758 35.29C171.218 34.89 170.688 34.58 170.168 34.36C169.648 34.14 169.128 34.03 168.608 34.03C167.488 34.03 166.928 34.42 166.928 35.2C166.928 35.44 167.008 35.65 167.168 35.83C167.328 35.99 167.538 36.14 167.798 36.28C168.078 36.42 168.388 36.56 168.728 36.7C169.088 36.82 169.458 36.95 169.838 37.09C170.318 37.27 170.788 37.48 171.248 37.72C171.728 37.94 172.158 38.22 172.538 38.56C172.938 38.9 173.258 39.32 173.498 39.82C173.738 40.3 173.858 40.88 173.858 41.56C173.858 42.24 173.728 42.87 173.468 43.45C173.208 44.03 172.818 44.54 172.298 44.98C171.778 45.4 171.138 45.74 170.378 46C169.618 46.24 168.738 46.36 167.738 46.36ZM183.025 46V26.44H187.435V34.45H187.555L193.375 26.44H198.235L192.325 34.24L199.315 46H194.485L189.715 37.75L187.435 40.75V46H183.025ZM205.24 46.36C203.62 46.36 202.44 45.83 201.7 44.77C200.98 43.71 200.62 42.24 200.62 40.36V31.12H205.03V39.79C205.03 40.87 205.18 41.61 205.48 42.01C205.78 42.41 206.25 42.61 206.89 42.61C207.45 42.61 207.92 42.48 208.3 42.22C208.68 41.96 209.09 41.54 209.53 40.96V31.12H213.94V46H210.34L210.01 43.93H209.92C209.28 44.69 208.59 45.29 207.85 45.73C207.13 46.15 206.26 46.36 205.24 46.36ZM221.871 46.36C221.111 46.36 220.471 46.24 219.951 46C219.431 45.76 219.011 45.43 218.691 45.01C218.391 44.57 218.171 44.05 218.031 43.45C217.891 42.83 217.821 42.14 217.821 41.38V24.97H222.231V41.56C222.231 42.02 222.311 42.34 222.471 42.52C222.651 42.7 222.831 42.79 223.011 42.79C223.111 42.79 223.191 42.79 223.251 42.79C223.331 42.79 223.431 42.77 223.551 42.73L224.091 46C223.851 46.1 223.541 46.18 223.161 46.24C222.801 46.32 222.371 46.36 221.871 46.36ZM226.405 46V31.12H230.815V46H226.405ZM228.595 28.93C227.855 28.93 227.245 28.72 226.765 28.3C226.285 27.86 226.045 27.3 226.045 26.62C226.045 25.94 226.285 25.39 226.765 24.97C227.245 24.55 227.855 24.34 228.595 24.34C229.355 24.34 229.965 24.55 230.425 24.97C230.905 25.39 231.145 25.94 231.145 26.62C231.145 27.3 230.905 27.86 230.425 28.3C229.965 28.72 229.355 28.93 228.595 28.93ZM238.446 46.36C237.766 46.36 237.146 46.24 236.586 46C236.046 45.78 235.586 45.47 235.206 45.07C234.826 44.65 234.526 44.17 234.306 43.63C234.106 43.09 234.006 42.5 234.006 41.86C234.006 40.3 234.666 39.08 235.986 38.2C237.306 37.32 239.436 36.73 242.376 36.43C242.336 35.77 242.136 35.25 241.776 34.87C241.436 34.47 240.856 34.27 240.036 34.27C239.396 34.27 238.756 34.39 238.116 34.63C237.496 34.87 236.826 35.2 236.106 35.62L234.516 32.71C235.476 32.13 236.476 31.66 237.516 31.3C238.576 30.94 239.696 30.76 240.876 30.76C242.796 30.76 244.256 31.31 245.256 32.41C246.276 33.49 246.786 35.18 246.786 37.48V46H243.186L242.886 44.47H242.766C242.126 45.03 241.456 45.49 240.756 45.85C240.056 46.19 239.286 46.36 238.446 46.36ZM239.946 42.94C240.446 42.94 240.876 42.83 241.236 42.61C241.596 42.39 241.976 42.08 242.376 41.68V39.07C240.816 39.29 239.736 39.61 239.136 40.03C238.536 40.45 238.236 40.95 238.236 41.53C238.236 42.01 238.386 42.37 238.686 42.61C239.006 42.83 239.426 42.94 239.946 42.94ZM250.516 46V24.97H254.926V30.13L254.716 32.8C255.276 32.3 255.926 31.84 256.666 31.42C257.406 30.98 258.286 30.76 259.306 30.76C260.926 30.76 262.096 31.29 262.816 32.35C263.556 33.41 263.926 34.88 263.926 36.76V46H259.516V37.33C259.516 36.25 259.366 35.51 259.066 35.11C258.786 34.71 258.326 34.51 257.686 34.51C257.126 34.51 256.646 34.64 256.246 34.9C255.846 35.14 255.406 35.49 254.926 35.95V46H250.516Z" fill="#222222"/>
</svg>
