<svg width="260" height="55" viewBox="0 0 260 55" fill="none" xmlns="http://www.w3.org/2000/svg">
<rect x="1" y="1" width="258" height="52" rx="4" fill="white" stroke="#333333" stroke-width="2"/>
<path d="M0 5C0 2.23857 2.23858 0 5 0H59.0581V54.3956H5C2.23857 54.3956 0 52.157 0 49.3956V5Z" fill="#333333"/>
<path d="M20.5969 28.4234V21.0364H17.8268C17.0921 21.0364 16.3875 21.3282 15.868 21.8477C15.3485 22.3672 15.0566 23.0718 15.0566 23.8065V40.4274C15.058 40.5989 15.1071 40.7666 15.1985 40.9118C15.2898 41.0569 15.4197 41.1738 15.5737 41.2492C15.7221 41.3167 15.8857 41.3437 16.0479 41.3275C16.21 41.3112 16.365 41.2524 16.4971 41.1569L21.2525 37.6573H33.6628C34.0128 37.6676 34.3611 37.606 34.6863 37.4762C35.0115 37.3465 35.3066 37.1513 35.5533 36.9029C35.8 36.6544 35.9931 36.358 36.1206 36.0319C36.248 35.7058 36.3072 35.357 36.2944 35.0071V33.9637H26.1372C24.6679 33.9637 23.2587 33.38 22.2196 32.341C21.1806 31.302 20.5969 29.8928 20.5969 28.4234Z" fill="white"/>
<path d="M41.8348 14.5727H26.1373C25.4026 14.5727 24.698 14.8645 24.1785 15.3841C23.659 15.9036 23.3672 16.6082 23.3672 17.3428V28.4234C23.3672 29.1581 23.659 29.8627 24.1785 30.3822C24.698 30.9017 25.4026 31.1936 26.1373 31.1936H38.6492L43.0629 34.6193C43.1941 34.7163 43.3487 34.7768 43.5109 34.7947C43.6731 34.8125 43.8372 34.7871 43.9863 34.7209C44.1434 34.6461 44.2762 34.5283 44.3694 34.3813C44.4625 34.2343 44.5121 34.0639 44.5126 33.8898V17.3428C44.513 16.6239 44.2339 15.9329 43.7342 15.416C43.2345 14.8991 42.5534 14.5967 41.8348 14.5727Z" fill="white"/>
<path d="M79.1686 27.5333L78.6886 29.3333H82.8586L82.4086 27.5333C82.1286 26.5533 81.8586 25.5133 81.5986 24.4133C81.3386 23.3133 81.0786 22.2533 80.8186 21.2333H80.6986C80.4586 22.2733 80.2086 23.3433 79.9486 24.4433C79.7086 25.5233 79.4486 26.5533 79.1686 27.5333ZM72.0886 37.4333L78.2086 17.8733H83.5186L89.6386 37.4333H84.9586L83.7586 32.7833H77.7886L76.5886 37.4333H72.0886ZM91.4158 37.4333V22.5533H95.0158L95.3158 24.4733H95.4358C96.0558 23.8533 96.7158 23.3233 97.4158 22.8833C98.1158 22.4233 98.9558 22.1933 99.9358 22.1933C100.996 22.1933 101.846 22.4133 102.486 22.8533C103.146 23.2733 103.666 23.8833 104.046 24.6833C104.706 24.0033 105.396 23.4233 106.116 22.9433C106.856 22.4433 107.726 22.1933 108.726 22.1933C110.326 22.1933 111.496 22.7333 112.236 23.8133C112.996 24.8733 113.376 26.3333 113.376 28.1933V37.4333H108.966V28.7633C108.966 27.6833 108.816 26.9433 108.516 26.5433C108.236 26.1433 107.776 25.9433 107.136 25.9433C106.396 25.9433 105.546 26.4233 104.586 27.3833V37.4333H100.176V28.7633C100.176 27.6833 100.026 26.9433 99.7258 26.5433C99.4458 26.1433 98.9858 25.9433 98.3458 25.9433C97.5858 25.9433 96.7458 26.4233 95.8258 27.3833V37.4333H91.4158ZM124.938 37.7933C124.278 37.7933 123.608 37.6333 122.928 37.3133C122.268 36.9733 121.648 36.4833 121.068 35.8433H120.948L120.588 37.4333H117.138V16.4033H121.548V21.5633L121.428 23.8433C122.008 23.3233 122.628 22.9233 123.288 22.6433C123.968 22.3433 124.658 22.1933 125.358 22.1933C126.258 22.1933 127.068 22.3733 127.788 22.7333C128.508 23.0933 129.118 23.6033 129.618 24.2633C130.138 24.9033 130.528 25.6933 130.788 26.6333C131.068 27.5533 131.208 28.5833 131.208 29.7233C131.208 31.0033 131.028 32.1433 130.668 33.1433C130.328 34.1433 129.858 34.9933 129.258 35.6933C128.678 36.3733 128.008 36.8933 127.248 37.2533C126.508 37.6133 125.738 37.7933 124.938 37.7933ZM123.918 34.1933C124.678 34.1933 125.328 33.8533 125.868 33.1733C126.408 32.4733 126.678 31.3533 126.678 29.8133C126.678 27.1333 125.818 25.7933 124.098 25.7933C123.218 25.7933 122.368 26.2433 121.548 27.1433V33.2333C121.948 33.5933 122.348 33.8433 122.748 33.9833C123.148 34.1233 123.538 34.1933 123.918 34.1933ZM134.336 37.4333V22.5533H138.746V37.4333H134.336ZM136.526 20.3633C135.786 20.3633 135.176 20.1533 134.696 19.7333C134.216 19.2933 133.976 18.7333 133.976 18.0533C133.976 17.3733 134.216 16.8233 134.696 16.4033C135.176 15.9833 135.786 15.7733 136.526 15.7733C137.286 15.7733 137.896 15.9833 138.356 16.4033C138.836 16.8233 139.076 17.3733 139.076 18.0533C139.076 18.7333 138.836 19.2933 138.356 19.7333C137.896 20.1533 137.286 20.3633 136.526 20.3633ZM147.007 37.7933C146.027 37.7933 145.017 37.6033 143.977 37.2233C142.957 36.8433 142.067 36.3433 141.307 35.7233L143.287 32.9633C143.967 33.4833 144.617 33.8733 145.237 34.1333C145.857 34.3933 146.487 34.5233 147.127 34.5233C147.787 34.5233 148.267 34.4133 148.567 34.1933C148.867 33.9733 149.017 33.6633 149.017 33.2633C149.017 33.0233 148.927 32.8133 148.747 32.6333C148.587 32.4333 148.357 32.2533 148.057 32.0933C147.777 31.9333 147.457 31.7933 147.097 31.6733C146.737 31.5333 146.367 31.3833 145.987 31.2233C145.527 31.0433 145.067 30.8333 144.607 30.5933C144.147 30.3533 143.727 30.0633 143.347 29.7233C142.967 29.3633 142.657 28.9533 142.417 28.4933C142.177 28.0133 142.057 27.4633 142.057 26.8433C142.057 26.1633 142.187 25.5333 142.447 24.9533C142.727 24.3733 143.117 23.8833 143.617 23.4833C144.117 23.0833 144.717 22.7733 145.417 22.5533C146.117 22.3133 146.897 22.1933 147.757 22.1933C148.897 22.1933 149.897 22.3933 150.757 22.7933C151.617 23.1733 152.367 23.6033 153.007 24.0833L151.027 26.7233C150.487 26.3233 149.957 26.0133 149.437 25.7933C148.917 25.5733 148.397 25.4633 147.877 25.4633C146.757 25.4633 146.197 25.8533 146.197 26.6333C146.197 26.8733 146.277 27.0833 146.437 27.2633C146.597 27.4233 146.807 27.5733 147.067 27.7133C147.347 27.8533 147.657 27.9933 147.997 28.1333C148.357 28.2533 148.727 28.3833 149.107 28.5233C149.587 28.7033 150.057 28.9133 150.517 29.1533C150.997 29.3733 151.427 29.6533 151.807 29.9933C152.207 30.3333 152.527 30.7533 152.767 31.2533C153.007 31.7333 153.127 32.3133 153.127 32.9933C153.127 33.6733 152.997 34.3033 152.737 34.8833C152.477 35.4633 152.087 35.9733 151.567 36.4133C151.047 36.8333 150.407 37.1733 149.647 37.4333C148.887 37.6733 148.007 37.7933 147.007 37.7933ZM162.293 37.4333V17.8733H166.703V25.8833H166.823L172.643 17.8733H177.503L171.593 25.6733L178.583 37.4333H173.753L168.983 29.1833L166.703 32.1833V37.4333H162.293ZM184.509 37.7933C182.889 37.7933 181.709 37.2633 180.969 36.2033C180.249 35.1433 179.889 33.6733 179.889 31.7933V22.5533H184.299V31.2233C184.299 32.3033 184.449 33.0433 184.749 33.4433C185.049 33.8433 185.519 34.0433 186.159 34.0433C186.719 34.0433 187.189 33.9133 187.569 33.6533C187.949 33.3933 188.359 32.9733 188.799 32.3933V22.5533H193.209V37.4333H189.609L189.279 35.3633H189.189C188.549 36.1233 187.859 36.7233 187.119 37.1633C186.399 37.5833 185.529 37.7933 184.509 37.7933ZM201.14 37.7933C200.38 37.7933 199.74 37.6733 199.22 37.4333C198.7 37.1933 198.28 36.8633 197.96 36.4433C197.66 36.0033 197.44 35.4833 197.3 34.8833C197.16 34.2633 197.09 33.5733 197.09 32.8133V16.4033H201.5V32.9933C201.5 33.4533 201.58 33.7733 201.74 33.9533C201.92 34.1333 202.1 34.2233 202.28 34.2233C202.38 34.2233 202.46 34.2233 202.52 34.2233C202.6 34.2233 202.7 34.2033 202.82 34.1633L203.36 37.4333C203.12 37.5333 202.81 37.6133 202.43 37.6733C202.07 37.7533 201.64 37.7933 201.14 37.7933ZM205.674 37.4333V22.5533H210.084V37.4333H205.674ZM207.864 20.3633C207.124 20.3633 206.514 20.1533 206.034 19.7333C205.554 19.2933 205.314 18.7333 205.314 18.0533C205.314 17.3733 205.554 16.8233 206.034 16.4033C206.514 15.9833 207.124 15.7733 207.864 15.7733C208.624 15.7733 209.234 15.9833 209.694 16.4033C210.174 16.8233 210.414 17.3733 210.414 18.0533C210.414 18.7333 210.174 19.2933 209.694 19.7333C209.234 20.1533 208.624 20.3633 207.864 20.3633ZM217.715 37.7933C217.035 37.7933 216.415 37.6733 215.855 37.4333C215.315 37.2133 214.855 36.9033 214.475 36.5033C214.095 36.0833 213.795 35.6033 213.575 35.0633C213.375 34.5233 213.275 33.9333 213.275 33.2933C213.275 31.7333 213.935 30.5133 215.255 29.6333C216.575 28.7533 218.705 28.1633 221.645 27.8633C221.605 27.2033 221.405 26.6833 221.045 26.3033C220.705 25.9033 220.125 25.7033 219.305 25.7033C218.665 25.7033 218.025 25.8233 217.385 26.0633C216.765 26.3033 216.095 26.6333 215.375 27.0533L213.785 24.1433C214.745 23.5633 215.745 23.0933 216.785 22.7333C217.845 22.3733 218.965 22.1933 220.145 22.1933C222.065 22.1933 223.525 22.7433 224.525 23.8433C225.545 24.9233 226.055 26.6133 226.055 28.9133V37.4333H222.455L222.155 35.9033H222.035C221.395 36.4633 220.725 36.9233 220.025 37.2833C219.325 37.6233 218.555 37.7933 217.715 37.7933ZM219.215 34.3733C219.715 34.3733 220.145 34.2633 220.505 34.0433C220.865 33.8233 221.245 33.5133 221.645 33.1133V30.5033C220.085 30.7233 219.005 31.0433 218.405 31.4633C217.805 31.8833 217.505 32.3833 217.505 32.9633C217.505 33.4433 217.655 33.8033 217.955 34.0433C218.275 34.2633 218.695 34.3733 219.215 34.3733ZM229.785 37.4333V16.4033H234.195V21.5633L233.985 24.2333C234.545 23.7333 235.195 23.2733 235.935 22.8533C236.675 22.4133 237.555 22.1933 238.575 22.1933C240.195 22.1933 241.365 22.7233 242.085 23.7833C242.825 24.8433 243.195 26.3133 243.195 28.1933V37.4333H238.785V28.7633C238.785 27.6833 238.635 26.9433 238.335 26.5433C238.055 26.1433 237.595 25.9433 236.955 25.9433C236.395 25.9433 235.915 26.0733 235.515 26.3333C235.115 26.5733 234.675 26.9233 234.195 27.3833V37.4333H229.785Z" fill="#333333"/>
</svg>
